<svg version="1.1" xmlns="http://www.w3.org/2000/svg" xmlns:xlink="http://www.w3.org/1999/xlink" width="54.81105" height="48.98486" viewBox="0,0,54.81105,48.98486"><g transform="translate(-202.80185,-142.35537)"><g data-paper-data="{&quot;isPaintingLayer&quot;:true}" fill-rule="nonzero" stroke-linecap="butt" stroke-linejoin="miter" stroke-miterlimit="10" stroke-dasharray="" stroke-dashoffset="0" style="mix-blend-mode: normal"><path d="M235.04765,158.09817c0,8.28029 -7.05058,14.99279 -15.74791,14.99279c-6.23876,0 -11.63019,-3.45389 -14.17976,-8.4628c-1.00474,-1.97391 -1.56814,-4.18931 -1.56814,-6.52999c0,-8.28029 7.05058,-14.99279 15.7479,-14.99279c8.69732,0 15.74791,6.7125 15.74791,14.99279z" fill="#f9c23c" stroke="#ff822d" stroke-width="1.5"/><g fill="#f3eef8" stroke="#b4acbc" stroke-width="1"><path d="M236.32152,176.36052c0,5.79575 15.87204,9.5586 10.91118,11.87226c-1.88409,0.8787 -23.29466,2.60745 -25.51465,2.60745c-8.06527,0 -14.60347,-6.48278 -14.60347,-14.47971c0,-7.99693 6.5382,-14.47971 14.60347,-14.47971c8.06527,0 14.60347,6.48279 14.60347,14.47971z"/><path d="M257.1129,173.39032c0,9.09052 -7.36932,16.45985 -16.45984,16.45985c-3.58924,0 -8.89029,1.57385 -11.59522,-0.37615c-4.1459,-2.9888 -4.86462,-10.58241 -4.86462,-16.0837c0,-9.09052 7.36933,-16.45984 16.45985,-16.45984c9.09052,0 16.45984,7.36932 16.45984,16.45984z"/></g><path d="M218.50034,189.85017v-20.29635c0,0 5.81267,-6.15347 8.13361,-6.15347c3.65374,0 11.6677,6.15347 11.6677,6.15347l-2.22764,20.04884c0,0 -4.42969,0.32288 -7.24872,0.36258c-3.02441,0.0426 -10.32495,-0.11507 -10.32495,-0.11507z" fill="#f3eef8" stroke="none" stroke-width="0"/></g></g></svg>